<?xml version="1.0" encoding="UTF-8" standalone="no"?>
<!-- Generator: Adobe Illustrator 18.0.0, SVG Export Plug-In . SVG Version: 6.00 Build 0)  -->

<svg
   xmlns:osb="http://www.openswatchbook.org/uri/2009/osb"
   xmlns:dc="http://purl.org/dc/elements/1.1/"
   xmlns:cc="http://creativecommons.org/ns#"
   xmlns:rdf="http://www.w3.org/1999/02/22-rdf-syntax-ns#"
   xmlns:svg="http://www.w3.org/2000/svg"
   xmlns="http://www.w3.org/2000/svg"
   xmlns:sodipodi="http://sodipodi.sourceforge.net/DTD/sodipodi-0.dtd"
   xmlns:inkscape="http://www.inkscape.org/namespaces/inkscape"
   version="1.1"
   id="Layer_1"
   x="0px"
   y="0px"
   viewBox="0 0 290 320"
   enable-background="new 0 0 595.3 841.9"
   xml:space="preserve"
   inkscape:version="0.48.4 r9939"
   width="100%"
   height="100%"
   sodipodi:docname="efesto_logo.svg"><metadata
     id="metadata35"><rdf:RDF><cc:Work
         rdf:about=""><dc:format>image/svg+xml</dc:format><dc:type
           rdf:resource="http://purl.org/dc/dcmitype/StillImage" /><dc:title /></cc:Work></rdf:RDF></metadata><defs
     id="defs33"><marker
       inkscape:stockid="Arrow1Lstart"
       orient="auto"
       refY="0.0"
       refX="0.0"
       id="Arrow1Lstart"
       style="overflow:visible"><path
         id="path3911"
         d="M 0.0,0.0 L 5.0,-5.0 L -12.5,0.0 L 5.0,5.0 L 0.0,0.0 z "
         style="fill-rule:evenodd;stroke:#000000;stroke-width:1.0pt"
         transform="scale(0.8) translate(12.5,0)" /></marker><linearGradient
       id="linearGradient3883"
       osb:paint="solid"><stop
         style="stop-color:#000000;stop-opacity:1;"
         offset="0"
         id="stop3885" /></linearGradient><linearGradient
       id="linearGradient3867"
       osb:paint="solid"><stop
         style="stop-color:#000000;stop-opacity:1;"
         offset="0"
         id="stop3869" /></linearGradient><linearGradient
       id="linearGradient3841"
       osb:paint="solid"><stop
         style="stop-color:#000000;stop-opacity:1;"
         offset="0"
         id="stop3843" /></linearGradient><filter
       id="filter3013"
       inkscape:label="Invert"
       x="0"
       y="0"
       width="1"
       height="1"
       inkscape:menu="Color"
       inkscape:menu-tooltip="Invert colors"
       color-interpolation-filters="sRGB"><feColorMatrix
         id="feColorMatrix3015"
         type="saturate"
         values="1"
         result="fbSourceGraphic" /><feColorMatrix
         id="feColorMatrix3017"
         in="fbSourceGraphic"
         values="-1 0 0 0 1 0 -1 0 0 1 0 0 -1 0 1 0 0 0 1 0 "
         result="fbSourceGraphic" /><feColorMatrix
         result="fbSourceGraphicAlpha"
         in="fbSourceGraphic"
         values="0 0 0 -1 0 0 0 0 -1 0 0 0 0 -1 0 0 0 0 1 0"
         id="feColorMatrix3006" /><feColorMatrix
         id="feColorMatrix3008"
         type="saturate"
         values="1"
         result="fbSourceGraphic"
         in="fbSourceGraphic" /><feColorMatrix
         id="feColorMatrix3010"
         in="fbSourceGraphic"
         values="-1 0 0 0 1 0 -1 0 0 1 0 0 -1 0 1 0 0 0 1 0 " /></filter><filter
       id="filter3019"
       inkscape:label="Invert"
       x="0"
       y="0"
       width="1"
       height="1"
       inkscape:menu="Color"
       inkscape:menu-tooltip="Invert colors"
       color-interpolation-filters="sRGB"><feColorMatrix
         id="feColorMatrix3021"
         type="saturate"
         values="1"
         result="fbSourceGraphic" /><feColorMatrix
         id="feColorMatrix3023"
         in="fbSourceGraphic"
         values="-1 0 0 0 1 0 -1 0 0 1 0 0 -1 0 1 0 0 0 1 0 "
         result="fbSourceGraphic" /><feColorMatrix
         result="fbSourceGraphicAlpha"
         in="fbSourceGraphic"
         values="0 0 0 -1 0 0 0 0 -1 0 0 0 0 -1 0 0 0 0 1 0"
         id="feColorMatrix3012" /><feColorMatrix
         id="feColorMatrix3014"
         type="saturate"
         values="1"
         result="fbSourceGraphic"
         in="fbSourceGraphic" /><feColorMatrix
         id="feColorMatrix3016"
         in="fbSourceGraphic"
         values="-1 0 0 0 1 0 -1 0 0 1 0 0 -1 0 1 0 0 0 1 0 " /></filter><filter
       id="filter3025"
       inkscape:label="Invert"
       x="0"
       y="0"
       width="1"
       height="1"
       inkscape:menu="Color"
       inkscape:menu-tooltip="Invert colors"
       color-interpolation-filters="sRGB"><feColorMatrix
         id="feColorMatrix3027"
         type="saturate"
         values="1"
         result="fbSourceGraphic" /><feColorMatrix
         id="feColorMatrix3029"
         in="fbSourceGraphic"
         values="-1 0 0 0 1 0 -1 0 0 1 0 0 -1 0 1 0 0 0 1 0 "
         result="fbSourceGraphic" /><feColorMatrix
         result="fbSourceGraphicAlpha"
         in="fbSourceGraphic"
         values="0 0 0 -1 0 0 0 0 -1 0 0 0 0 -1 0 0 0 0 1 0"
         id="feColorMatrix3018" /><feColorMatrix
         id="feColorMatrix3020"
         type="saturate"
         values="1"
         result="fbSourceGraphic"
         in="fbSourceGraphic" /><feColorMatrix
         id="feColorMatrix3022"
         in="fbSourceGraphic"
         values="-1 0 0 0 1 0 -1 0 0 1 0 0 -1 0 1 0 0 0 1 0 " /></filter><filter
       id="filter3031"
       inkscape:label="Invert"
       x="0"
       y="0"
       width="1"
       height="1"
       inkscape:menu="Color"
       inkscape:menu-tooltip="Invert colors"
       color-interpolation-filters="sRGB"><feColorMatrix
         id="feColorMatrix3033"
         type="saturate"
         values="1"
         result="fbSourceGraphic" /><feColorMatrix
         id="feColorMatrix3035"
         in="fbSourceGraphic"
         values="-1 0 0 0 1 0 -1 0 0 1 0 0 -1 0 1 0 0 0 1 0 "
         result="fbSourceGraphic" /><feColorMatrix
         result="fbSourceGraphicAlpha"
         in="fbSourceGraphic"
         values="0 0 0 -1 0 0 0 0 -1 0 0 0 0 -1 0 0 0 0 1 0"
         id="feColorMatrix3024" /><feColorMatrix
         id="feColorMatrix3026"
         type="saturate"
         values="1"
         result="fbSourceGraphic"
         in="fbSourceGraphic" /><feColorMatrix
         id="feColorMatrix3028"
         in="fbSourceGraphic"
         values="-1 0 0 0 1 0 -1 0 0 1 0 0 -1 0 1 0 0 0 1 0 " /></filter></defs><sodipodi:namedview
     pagecolor="#ffffff"
     bordercolor="#666666"
     borderopacity="1"
     objecttolerance="10"
     gridtolerance="10"
     guidetolerance="10"
     inkscape:pageopacity="0"
     inkscape:pageshadow="2"
     inkscape:window-width="1404"
     inkscape:window-height="968"
     id="namedview31"
     showgrid="false"
     inkscape:zoom="0.79285996"
     inkscape:cx="59.459775"
     inkscape:cy="312.45747"
     inkscape:window-x="120"
     inkscape:window-y="35"
     inkscape:window-maximized="0"
     inkscape:current-layer="g3030"
     width="653.5px" /><g
     id="g3030"
     transform="translate(0,-521.9)"><path
       sodipodi:type="arc"
       style="fill:#ffffff;fill-opacity:1;fill-rule:nonzero;stroke:#000000;stroke-width:1.85403121;stroke-linejoin:miter;stroke-miterlimit:4;stroke-opacity:1;stroke-dasharray:none"
       id="path4715"
       sodipodi:cx="-314.05295"
       sodipodi:cy="-333.33102"
       sodipodi:rx="151.31403"
       sodipodi:ry="151.31403"
       d="m -162.73892,-333.33102 a 151.31403,151.31403 0 1 1 -302.62805,0 151.31403,151.31403 0 1 1 302.62805,0 z"
       transform="matrix(0.91279133,0,0,0.90862365,430.77243,968.719)" /><g
       style="filter:url(#filter3031)"
       id="g3"
       transform="translate(-152.39584,314.97179)"><path
         inkscape:connector-curvature="0"
         id="path5"
         d="m 300.8,483 c -67.9,0.6 -130.1,-44.2 -135.6,-122.3 -5.2,-74 52.1,-138.1 122.9,-141.5 76.2,-3.7 137.8,52.8 141.3,129.3 3.2,70 -55,130.9 -128.6,134.5 z" /></g><g
       style="filter:url(#filter3019)"
       id="g13"
       transform="translate(-152.39584,314.97179)"><path
         inkscape:connector-curvature="0"
         id="circle15"
         d="m 333.6,484.20001 c 0,21.04205 -17.05795,38.1 -38.1,38.1 -21.04205,0 -38.1,-17.05795 -38.1,-38.1 0,-21.04205 17.05795,-38.1 38.1,-38.1 21.04205,0 38.1,17.05795 38.1,38.1 z"
         style="fill:#ffffff" /><g
         id="g17"><path
           style="fill:#010202"
           d="m 312.6,460 c -0.3,-0.3 -0.6,-0.3 -0.8,-0.2 l -2,2.2 -2.6,-2.5 c -0.8,-0.8 -1.9,-1.2 -2.6,-0.3 l -7.2,7.5 c -0.6,0.6 -0.9,1.5 0,2.4 l 3.2,3 -30.3,33.1 c -0.2,0.2 -0.1,0.5 0.2,0.8 l 3.7,3.5 c 0.3,0.3 0.6,0.3 0.8,0.1 l 31.7,-31.8 8.7,8.3 c 0.5,0.4 1.1,0.6 1.6,0 l 3.7,-3.9 c 0.3,-0.3 0.2,-0.6 0.1,-0.8 -2.7,-3 -5.6,-5.7 -2.1,-10.6 0.3,-0.4 0.2,-0.3 -0.2,-0.7 l -2.2,-2.1 2.1,-2.1 c 0.2,-0.2 0.1,-0.5 -0.2,-0.8 l -5.6,-5.1 0,0 z"
           inkscape:connector-curvature="0"
           id="path5327_43_" /><path
           style="fill:#010202"
           d="m 278.4,460 -5.5,5.3 c -0.3,0.3 -0.3,0.6 -0.2,0.8 l 2.1,2.1 -2.2,2.1 c -0.4,0.4 -0.5,0.3 -0.2,0.7 3.4,4.9 0.6,7.6 -2.1,10.6 -0.1,0.2 -0.2,0.4 0.1,0.8 l 3.7,3.9 c 0.6,0.6 1.2,0.4 1.6,0 l 8.7,-8.3 31.7,31.8 c 0.2,0.2 0.5,0.1 0.8,-0.1 l 3.7,-3.5 c 0.3,-0.3 0.3,-0.6 0.2,-0.8 l -30.3,-33.1 3.2,-3 c 0.9,-0.9 0.6,-1.8 0,-2.4 l -7.2,-7.5 c -0.8,-0.9 -1.8,-0.5 -2.6,0.3 l -2.6,2.5 -2,-2.2 c -0.3,-0.3 -0.7,-0.3 -0.9,0 l 0,0 z"
           inkscape:connector-curvature="0"
           id="path5327_42_" /></g></g><g
       style="filter:url(#filter3013)"
       id="g21"
       transform="translate(-152.39584,314.97179)"><g
         id="g23"><path
           style="fill:#ffffff"
           inkscape:connector-curvature="0"
           id="path25"
           d="m 269,256 v 70.9 h 12.3 v -58.6 h 52.3 v 8.4 h -43.9 v 50.2 h 43.9 V 335 H 269 v 69.7 h 12.3 v -57.4 h 52.3 v 8.1 h -43.9 v 49.3 h 43.9 v 8.4 h -43.9 v 12.3 h 43.9 v 8.1 h -72.7 v -8.1 -177.5 h 72.7 V 256 H 269 z m 12.3,169.4 V 413.1 H 269 v 12.3 h 12.3 z" /></g></g></g></svg>